<svg fill="none" height="32" viewBox="0 0 32 32" width="32" xmlns="http://www.w3.org/2000/svg"><path d="m2 6c0-2.20914 1.79086-4 4-4h20c2.2091 0 4 1.79086 4 4v20c0 2.2091-1.7909 4-4 4h-20c-2.20914 0-4-1.7909-4-4z" fill="#00d26a"/><path d="m13.242 23c-.3832 0-.7663-.1434-1.059-.4308l-5.74445-5.6414c-.58473-.5743-.58473-1.5058 0-2.0801.58474-.5742 1.53331-.5742 2.11804 0l4.68541 4.6014 10.2014-10.01841c.5847-.57425 1.5333-.57425 2.118 0 .5848.57421.5848 1.50581 0 2.08001l-11.2604 11.0585c-.292.2874-.6758.4308-1.059.4308z" fill="#f4f4f4"/></svg>