<svg enable-background="new 0 0 128 128" viewBox="0 0 128 128" xmlns="http://www.w3.org/2000/svg" xmlns:xlink="http://www.w3.org/1999/xlink"><linearGradient id="a" gradientUnits="userSpaceOnUse" x1="78.19" x2="50.69" y1="50.493" y2="84.16"><stop offset=".00022998" stop-color="#bdbdbd"/><stop offset=".1211" stop-color="#c8c8c8"/><stop offset=".4234" stop-color="#ddd"/><stop offset=".7183" stop-color="#eaeaea"/><stop offset=".9949" stop-color="#eee"/></linearGradient><radialGradient id="b" cx="15.171" cy="65.812" gradientUnits="userSpaceOnUse" r="36.096"><stop offset="0" stop-color="#a8a8a8"/><stop offset=".1684" stop-color="#bfbfbf"/><stop offset=".4001" stop-color="#d9d9d9"/><stop offset=".6095" stop-color="#e9e9e9"/><stop offset=".7755" stop-color="#eee"/></radialGradient><radialGradient id="c" cx="115.88" cy="66.056" gradientUnits="userSpaceOnUse" r="28.287"><stop offset=".0017339" stop-color="#a3a3a3"/><stop offset=".1847" stop-color="#b7b7b7"/><stop offset=".5159" stop-color="#d5d5d5"/><stop offset=".7993" stop-color="#e7e7e7"/><stop offset="1" stop-color="#eee"/></radialGradient><circle cx="65.85" cy="65.6" fill="#e8e8e8" r="37.92"/><circle cx="65.85" cy="65.6" fill="url(#a)" r="25.35"/><circle cx="65.31" cy="66.89" fill="#fff" r="24.22"/><circle cx="65.98" cy="66.22" fill="#e8e8e8" r="23.56"/><path d="m65.85 29.68c19.8 0 35.92 16.11 35.92 35.92s-16.11 35.92-35.92 35.92-35.91-16.12-35.91-35.92 16.11-35.92 35.91-35.92m0-2c-20.94 0-37.92 16.98-37.92 37.92s16.98 37.92 37.92 37.92 37.92-16.98 37.92-37.92-16.98-37.92-37.92-37.92z" fill="#424242" opacity=".2"/><path d="m24.7 19.08c-.1-2.12-.58-3.08-1.45-3.08-.96 0-1.44.96-1.54 3.08l-1.15 16.94c0 .96-.58 1.64-1.35 1.64-.67 0-1.25-.67-1.25-1.64l-1.35-16.94c-.19-2.21-.57-3.08-1.44-3.08s-1.35.87-1.44 3.08l-1.35 16.94c-.19.96-.77 1.64-1.35 1.64s-1.15-.67-1.35-1.64l-1.05-16.94c-.19-2.12-.58-3.08-1.54-3.08s-1.35.96-1.54 3.08c-.48 8.37-1.54 16.74-1.54 30.22 0 3.08.96 5.58 2.79 7.03l3.47 2.79c.87.67 1.44 1.83 1.35 3.75l-1.4 47.71c-.04 2.77 2.19 5.05 4.96 5.05 2.78 0 5.01-2.29 4.96-5.07l-1.5-47.69c-.1-1.93.48-3.18 1.35-3.85l3.46-2.69c1.83-1.44 2.89-4.04 2.89-7.03-.01-13.47-1.07-21.85-1.64-30.22z" fill="url(#b)"/><path d="m23.24 26.07c.52 6.29 1.09 13.45 1.09 23.23 0 2.36-.8 4.4-2.12 5.45l-3.46 2.69c-.86.67-2.28 2.28-2.12 5.49l1.5 47.67c.01.81-.29 1.57-.86 2.14-.56.57-1.31.89-2.11.89s-1.55-.31-2.11-.88-.87-1.33-.86-2.11l1.4-47.67c.15-3.01-1.07-4.62-2.09-5.41l-3.48-2.8c-1.31-1.04-2.03-2.97-2.03-5.46 0-9.56.54-16.6 1.02-22.8.01-.14.02-.27.03-.41l.63 10.06c.01.09.02.18.04.27.38 1.91 1.74 3.24 3.31 3.24s2.93-1.33 3.31-3.25c.02-.08.03-.15.03-.23l.8-10.02.79 9.95c.04 1.99 1.45 3.54 3.25 3.54 1.88 0 3.31-1.52 3.35-3.56zm.01-10.07c-.96 0-1.44.96-1.54 3.08l-1.15 16.94c0 .96-.58 1.64-1.35 1.64-.67 0-1.25-.67-1.25-1.64l-1.35-16.94c-.19-2.21-.57-3.08-1.44-3.08s-1.35.87-1.44 3.08l-1.35 16.94c-.19.96-.77 1.64-1.35 1.64s-1.15-.67-1.35-1.64l-1.05-16.94c-.19-2.12-.58-3.08-1.54-3.08s-1.35.96-1.54 3.08c-.48 8.37-1.54 16.74-1.54 30.22 0 3.08.96 5.58 2.79 7.03l3.47 2.79c.87.67 1.44 1.83 1.35 3.75l-1.4 47.71c-.04 2.77 2.19 5.05 4.96 5.05 2.78 0 5.01-2.29 4.96-5.07l-1.5-47.69c-.1-1.93.48-3.18 1.35-3.85l3.46-2.69c1.83-1.44 2.89-4.04 2.89-7.03 0-13.47-1.06-21.84-1.64-30.22-.1-2.12-.58-3.08-1.45-3.08z" fill="#424242" opacity=".2"/><path d="m122 63.57v-43.48c0-3.65-1.06-4.64-3.16-3.26-5.34 3.51-10.51 20.59-10.51 41.51 0 7.71 7.62 6.67 7.96 8.97l-2.36 43.52c-.04 2.77 2.22 5.05 4.99 5.05 2.78 0 4.55-2.29 4.5-5.07z" fill="url(#c)"/><path d="m119.9 18.53c.06.33.1.83.1 1.56v43.48.06l1.42 47.22c.02.95-.28 1.81-.82 2.37-.43.44-1 .66-1.67.66-.81 0-1.57-.32-2.14-.9-.56-.57-.86-1.31-.86-2.09l2.36-43.48c.01-.13 0-.26-.02-.39-.28-1.94-2.12-2.67-3.59-3.26-2.24-.89-4.35-1.74-4.35-5.42 0-21.81 5.54-37.09 9.57-39.81m.48-2.29c-.43 0-.94.2-1.54.59-5.34 3.51-10.51 20.59-10.51 41.51 0 7.71 7.62 6.67 7.96 8.97l-2.36 43.52c-.04 2.77 2.22 5.05 4.99 5.05 2.78 0 4.55-2.29 4.5-5.07l-1.42-47.24v-43.48c0-2.6-.54-3.85-1.62-3.85z" fill="#424242" opacity=".2"/></svg>