<svg enable-background="new 0 0 512 512" viewBox="0 0 512 512" xmlns="http://www.w3.org/2000/svg"><path d="m411.111 183.926c0-87.791-68.91-158.959-153.914-158.959s-153.914 71.169-153.914 158.959c0 39.7 14.093 75.999 37.392 103.856h-.001l33.666 61.027c8.793 16.28 12.057 26.792 26.792 26.792h109.774c14.736 0 19.071-11.07 26.792-26.792l36.022-61.027h-.002c23.299-27.857 37.393-64.156 37.393-103.856z" fill="#ffe46a"/><path d="m112.805 203.285c0-90.721 68.378-165.701 157.146-177.719-4.391-.389-8.831-.599-13.319-.599-85.004 0-153.914 71.169-153.914 158.959 0 28.89 7.469 55.974 20.512 79.319-6.75-18.749-10.425-38.932-10.425-59.96z" fill="#fff0b7"/><path d="m411.111 184.266c0-31.445-8.843-60.755-24.097-85.428 3.219 12.726 4.917 25.908 4.917 39.416 0 104.454-101.138 189.522-227.481 192.967l9.89 17.929c8.793 16.28 12.057 26.792 26.792 26.792h109.774c14.736 0 19.071-11.07 26.792-26.792l36.022-61.027h-.002c23.299-27.858 37.393-64.157 37.393-103.857z" fill="#ffda00"/><path d="m321.905 211.203c.149-.131.297-.251.447-.395 2.787-2.667 5.082-6.921 3.161-10.867-7.879-16.176-31.97-21.308-49.524-15.951-.889.271-1.751.566-2.588.885-9.562-5.583-21.434-6.925-32.001-3.569-1.275.405-2.503.871-3.678 1.394-5.785-3.38-12.552-5.066-19.294-4.414-14.112 1.365-26.375 12.81-28.805 26.752l-1.112.688c9.617 15.541 34.93 60.071 36.552 79.233 2.045 24.174.002 89.793-.019 90.453l11.994.379c.086-2.723 2.086-66.978-.019-91.844-.938-11.087-7.722-28.758-20.164-52.521-5.807-11.092-11.445-20.83-14.858-26.576 2.36-7.646 9.61-13.848 17.586-14.619 2.429-.235 4.893.037 7.251.729-.893 1.147-1.67 2.362-2.32 3.638-4.047 7.935-2.356 17.898 3.933 23.176 3.725 3.125 9.137 4.276 14.127 3 4.647-1.188 8.239-4.242 9.854-8.379 1.451-3.718 1.328-8.01-.367-12.756-.982-2.749-2.359-5.318-4.05-7.655 4.51-.878 9.225-.609 13.61.744-1.715 1.975-3.027 4.173-3.89 6.556-1.844 5.101-1.029 11.163 2.128 15.822 2.721 4.016 6.856 6.403 11.348 6.551.15.005.301.008.45.008 3.935 0 7.67-1.692 10.562-4.797 3.397-3.647 5.126-8.71 4.624-13.544-.319-3.073-1.412-6.079-3.172-8.867 12.236-2.223 24.205 1.911 29.383 8.186-3.125 5.2-9.542 16.11-16.178 28.785-12.441 23.764-19.227 41.435-20.164 52.521-2.104 24.866-.104 89.121-.019 91.844l11.994-.379c-.021-.66-2.064-66.275-.019-90.453 1.459-17.251 22.113-55.046 33.237-73.758zm-80.657-3.171c-.279.716-1.331 1.035-1.647 1.116-1.25.319-2.665.086-3.442-.565-2.015-1.691-2.453-5.599-.957-8.532.463-.908 1.087-1.774 1.85-2.583 1.611 1.828 2.892 3.926 3.707 6.208.665 1.86.843 3.449.489 4.356zm32.19.654c-.351.375-1.065.992-1.839.976-.831-.027-1.489-.819-1.808-1.289-.993-1.467-1.312-3.527-.776-5.009.618-1.71 1.811-3.109 3.203-4.235 1.55 1.751 2.501 3.634 2.688 5.434.144 1.371-.447 3.027-1.468 4.123z" fill="#faaf63"/><path d="m315.932 402.701h-118.035c-6.6 0-12 5.4-12 12v6.957c0 6.6 5.4 12 12 12h38.122c-11.367 4.229-23.369 14.285-23.369 25.946v4.68c9.123 10.254 17.619 28.081 33.802 28.081h21.89c12.748 0 21.804-13.762 32.836-28.081v-4.68c0-11.661-11.451-21.717-22.548-25.946h37.302c6.6 0 12-5.4 12-12v-6.957c0-6.6-5.4-12-12-12z" fill="#6b83a5"/><path d="m324.406 402.701h-134.983c-6.6 0-12-5.4-12-12v-6.957c0-6.6 5.4-12 12-12h134.983c6.6 0 12 5.4 12 12v6.957c0 6.6-5.4 12-12 12zm-7.007 49.915v-6.957c0-6.6-5.4-12-12-12h-96.969c-6.6 0-12 5.4-12 12v6.957c0 6.6 5.4 12 12 12h96.969c6.6 0 12-5.4 12-12z" fill="#abbddb"/></svg>